HIERARCHY
ROOT SpineBase
{
  OFFSET 0.000000 0.000000 0.000000
  CHANNELS 6 Xposition Yposition Zposition Zrotation Xrotation Yrotation
  JOINT SpineMid
  {
    OFFSET -0.000000 32.606998 0.000000
    CHANNELS 3 Zrotation Xrotation Yrotation
    JOINT SpineShoulder
    {
      OFFSET -0.263776 23.948092 -0.962137
      CHANNELS 3 Zrotation Xrotation Yrotation
      JOINT Neck
      {
        OFFSET -0.145395 7.884646 -0.725505
        CHANNELS 3 Zrotation Xrotation Yrotation
        JOINT Head
        {
          OFFSET -0.098436 12.526480 6.202249
          CHANNELS 3 Zrotation Xrotation Yrotation
          End Site
          {
            OFFSET 0 0 0
          }
        }
      }
      JOINT ShoulderLeft
      {
        OFFSET -6.678740 -2.707015 10.591565
        CHANNELS 3 Zrotation Xrotation Yrotation
        JOINT ElbowLeft
        {
          OFFSET -6.224361 -20.652147 -20.658288
          CHANNELS 3 Zrotation Xrotation Yrotation
          JOINT WristLeft
          {
            OFFSET -3.029226 -26.919219 -8.544455
            CHANNELS 3 Zrotation Xrotation Yrotation
            JOINT HandLeft
            {
              OFFSET -2.728145 -5.421296 0.080711
              CHANNELS 3 Zrotation Xrotation Yrotation
              JOINT HandTipLeft
              {
                OFFSET -1.562482 -8.419684 1.262003
                CHANNELS 3 Zrotation Xrotation Yrotation
                End Site
                {
                  OFFSET 0 0 0
                }
              }
              JOINT ThumbLeft
              {
                OFFSET 4.745230 0.612741 0.850163
                CHANNELS 3 Zrotation Xrotation Yrotation
                End Site
                {
                  OFFSET 0 0 0
                }
              }
            }
          }
        }
      }
      JOINT ShoulderRight
      {
        OFFSET -5.715557 -4.165697 -11.329471
        CHANNELS 3 Zrotation Xrotation Yrotation
        JOINT ElbowRight
        {
          OFFSET -8.227330 -26.566537 -2.507877
          CHANNELS 3 Zrotation Xrotation Yrotation
          JOINT WristRight
          {
            OFFSET -7.441534 -22.303092 0.064192
            CHANNELS 3 Zrotation Xrotation Yrotation
            JOINT HandRight
            {
              OFFSET -2.531819 -8.902837 -2.354161
              CHANNELS 3 Zrotation Xrotation Yrotation
              JOINT HandTipRight
              {
                OFFSET -2.971782 -6.762377 3.057272
                CHANNELS 3 Zrotation Xrotation Yrotation
                End Site
                {
                  OFFSET 0 0 0
                }
              }
              JOINT ThumbRight
              {
                OFFSET -4.907019 -5.047526 0.445780
                CHANNELS 3 Zrotation Xrotation Yrotation
                End Site
                {
                  OFFSET 0 0 0
                }
              }
            }
          }
        }
      }
    }
  }
  JOINT HipLeft
  {
    OFFSET -0.356936 1.073291 -7.346932
    CHANNELS 3 Zrotation Xrotation Yrotation
    JOINT KneeLeft
    {
      OFFSET 6.301772 -37.433115 12.677979
      CHANNELS 3 Zrotation Xrotation Yrotation
      JOINT AnkleLeft
      {
        OFFSET 4.890180 -26.369204 7.344626
        CHANNELS 3 Zrotation Xrotation Yrotation
        JOINT FootLeft
        {
          OFFSET -10.710753 -3.244917 -3.928799
          CHANNELS 3 Zrotation Xrotation Yrotation
          End Site
          {
            OFFSET 0 0 0
          }
        }
      }
    }
  }
  JOINT HipRight
  {
    OFFSET -1.395596 0.794613 -0.065117
    CHANNELS 3 Zrotation Xrotation Yrotation
    JOINT KneeRight
    {
      OFFSET -7.597704 -32.208688 -9.585650
      CHANNELS 3 Zrotation Xrotation Yrotation
      JOINT AnkleRight
      {
        OFFSET 5.307632 -39.776895 -3.418744
        CHANNELS 3 Zrotation Xrotation Yrotation
        JOINT FootRight
        {
          OFFSET -4.755602 -6.197564 -0.459377
          CHANNELS 3 Zrotation Xrotation Yrotation
          End Site
          {
            OFFSET 0 0 0
          }
        }
      }
    }
  }
}
MOTION
Frames: 5
Frame Time: 0.033333
49.285771 78.820135 269.888050 -0.000000 0.000000 -98.117766 -0.000000 -0.000000 98.117766 -0.000000 0.000000 0.000000 -0.000000 0.000000 0.000000 0.000000 0.000000 0.000000 -0.000000 0.000000 0.000000 -0.000000 0.000000 0.000000 -0.000000 0.000000 0.000000 -0.000000 0.000000 0.000000 0.000000 0.000000 0.000000 0.000000 0.000000 0.000000 -0.000000 0.000000 0.000000 -0.000000 0.000000 0.000000 -0.000000 0.000000 0.000000 -0.000000 0.000000 0.000000 0.000000 0.000000 0.000000 0.000000 0.000000 0.000000 -0.000000 -0.000000 98.117766 -0.000000 0.000000 0.000000 -0.000000 0.000000 0.000000 0.000000 0.000000 0.000000 -0.000000 -0.000000 98.117766 -0.000000 0.000000 0.000000 -0.000000 0.000000 0.000000 0.000000 0.000000 0.000000
49.426576 78.491804 269.811410 0.191851 -0.016814 -95.311928 0.001020 -0.192584 95.311958 -0.000000 0.000000 0.000000 -0.000000 0.000000 0.000000 0.000000 0.000000 0.000000 -0.000000 0.000000 0.000000 -0.000000 0.000000 0.000000 1.700106 -0.768139 0.426404 -2.450302 2.581392 -0.830156 0.000000 0.000000 0.000000 0.000000 0.000000 0.000000 1.607889 0.574258 -0.339007 -1.604546 -0.583534 0.322777 0.586538 -2.426142 0.551264 -3.427547 4.489298 -2.541824 0.000000 0.000000 0.000000 0.000000 0.000000 0.000000 0.523923 1.246807 95.664690 -3.220591 1.281376 -0.720766 1.973351 -0.949153 1.443416 0.000000 0.000000 0.000000 0.320792 -1.006577 95.622318 0.841400 0.238489 -0.308765 1.055341 0.615078 -0.559593 0.000000 0.000000 0.000000
49.543894 78.234282 269.740613 0.356375 -0.032291 -92.675329 -0.015622 -0.357494 92.675381 -0.000000 0.000000 0.000000 -0.000000 0.000000 0.000000 0.000000 0.000000 0.000000 0.713409 0.745623 -0.938630 -0.701160 -0.757153 0.929355 2.996541 -1.344953 0.766595 -4.270156 4.540123 -1.412240 0.000000 0.000000 0.000000 0.000000 0.000000 0.000000 2.940080 1.109792 -0.654380 -2.927796 -1.141829 0.596718 0.997602 -4.710803 1.132752 -6.113066 8.563451 -4.447454 0.000000 0.000000 0.000000 0.000000 0.000000 0.000000 1.116571 2.316499 93.326564 -5.934347 2.447136 -1.260340 3.588560 -1.708044 2.585367 0.000000 0.000000 0.000000 0.538184 -1.863931 93.254470 1.535421 0.467392 -0.574616 2.169854 1.165427 -1.092244 0.000000 0.000000 0.000000
49.637724 78.047569 269.675659 0.494668 -0.046518 -90.316564 -0.043784 -0.494917 90.316575 -0.000000 0.000000 0.000000 -0.000000 0.000000 0.000000 0.000000 0.000000 0.000000 1.008385 1.031474 -1.320228 -0.984520 -1.054276 1.302093 3.926338 -1.754743 1.019053 -5.541852 5.927942 -1.801653 0.000000 0.000000 0.000000 0.000000 0.000000 0.000000 3.997734 1.609870 -0.941222 -3.954287 -0.708013 0.506179 1.244323 -7.811446 2.077802 -8.052918 12.111828 -5.817422 0.000000 0.000000 0.000000 0.000000 0.000000 0.000000 1.744790 3.214925 91.213296 -8.182290 3.490030 -1.651405 4.870904 -2.290424 3.414842 0.000000 0.000000 0.000000 0.684674 -2.561369 91.119427 2.080241 0.687931 -0.795911 3.347783 1.654842 -1.600560 0.000000 0.000000 0.000000
49.708068 77.931666 269.616547 0.607581 -0.059567 -88.340260 -0.077141 -0.605601 88.340169 -0.000000 0.000000 0.000000 -0.000000 0.000000 0.000000 0.000000 0.000000 0.000000 1.260816 1.260578 -1.642314 -1.224486 -1.295896 1.614595 4.516599 -2.014848 1.183916 -6.319558 6.782664 -2.033490 0.000000 0.000000 0.000000 0.000000 0.000000 0.000000 4.783191 2.077830 -1.195509 -4.740415 -0.990888 0.625616 1.329300 -10.033478 2.767733 -9.244499 15.069966 -6.759503 0.000000 0.000000 0.000000 0.000000 0.000000 0.000000 2.372806 3.955129 89.432179 -9.999902 4.408064 -1.920971 5.844569 -2.708288 3.925808 0.000000 0.000000 0.000000 0.794584 -3.091200 89.320218 3.386291 0.858479 -1.067272 3.679294 2.118593 -2.006869 0.000000 0.000000 0.000000
